<?xml version="1.0" encoding="iso-8859-1"?>
<!-- Generator: Adobe Illustrator 19.0.0, SVG Export Plug-In . SVG Version: 6.00 Build 0)  -->
<!-- License: CC0. Made by SVG Repo: https://www.svgrepo.com/svg/278554/paste -->
<svg width="462" height="588" viewBox="0 0 462 588" fill="none" xmlns="http://www.w3.org/2000/svg">
<rect width="26.4618" height="4.7339" transform="matrix(0.757375 0.65298 0.65298 -0.757375 161.185 47.5859)" fill="#6070FF"/>
<ellipse cx="166.304" cy="59.2115" rx="5.5" ry="5" transform="rotate(52.9708 166.304 59.2115)" fill="#CBCDFF"/>
<rect x="225.824" y="549" width="68.0631" height="12.1762" transform="rotate(23.34 225.824 549)" fill="#EBEBFF"/>
<circle cx="281" cy="563.096" r="10" fill="#6070FF"/>
<path d="M368.907 465.5C370.426 463.69 371.498 461.548 372.036 459.247C372.573 456.945 372.562 454.55 372.001 452.254C371.441 449.958 370.348 447.827 368.81 446.032C367.273 444.237 365.335 442.83 363.152 441.924C360.97 441.017 358.604 440.638 356.248 440.816C353.891 440.994 351.61 441.724 349.588 442.948C347.566 444.171 345.861 445.854 344.611 447.859C343.36 449.864 342.6 452.136 342.39 454.49L348.841 455.063C348.96 453.722 349.393 452.428 350.106 451.286C350.818 450.144 351.79 449.185 352.941 448.488C354.093 447.791 355.393 447.375 356.735 447.273C358.078 447.172 359.425 447.388 360.669 447.905C361.912 448.421 363.016 449.223 363.892 450.245C364.768 451.268 365.391 452.482 365.71 453.79C366.029 455.098 366.036 456.462 365.73 457.773C365.423 459.084 364.813 460.305 363.947 461.336L368.907 465.5Z" fill="#EBEBFF"/>
<path d="M352.497 429C352.278 432.194 353.337 435.344 355.441 437.757C357.545 440.171 360.521 441.649 363.715 441.868C366.909 442.087 370.059 441.028 372.472 438.924C374.885 436.82 376.364 433.844 376.583 430.65L352.497 429Z" fill="#6070FF"/>
<rect y="37.4874" width="51.9898" height="9.30073" transform="rotate(-46.1415 0 37.4874)" fill="#EBEBFF"/>
<path d="M22.1905 24.6425C20.1856 29.3383 20.1282 34.6382 22.031 39.3763C23.9337 44.1143 27.6408 47.9025 32.3365 49.9074C37.0323 51.9123 42.3322 51.9696 47.0703 50.0669C51.8084 48.1641 55.5965 44.4571 57.6014 39.7613L22.1905 24.6425Z" fill="#6070FF"/>
<circle cx="255.5" cy="13.5006" r="7" fill="white" stroke="#CBCDFF"/>
<circle cx="337.5" cy="216.501" r="5" fill="white" stroke="#CBCDFF"/>
<circle cx="94.5" cy="548.5" r="7" fill="white" stroke="#CBCDFF"/>
<path d="M455.241 74.9707C451.195 67.7882 445.514 61.6596 438.659 57.0809C431.803 52.5023 423.966 49.6024 415.782 48.616C407.597 47.6297 399.295 48.5846 391.548 51.4034C383.802 54.2222 376.827 58.8258 371.191 64.8413C365.554 70.8568 361.413 78.1152 359.103 86.0287C356.793 93.9422 356.379 102.289 357.895 110.392C359.411 118.495 362.813 126.127 367.828 132.671C372.842 139.215 379.326 144.485 386.756 148.057L396.543 127.696C392.31 125.661 388.616 122.658 385.759 118.931C382.903 115.203 380.964 110.855 380.101 106.238C379.237 101.622 379.473 96.8668 380.789 92.3585C382.105 87.8502 384.464 83.7151 387.675 80.2881C390.886 76.861 394.86 74.2384 399.273 72.6325C403.686 71.0266 408.416 70.4826 413.079 71.0446C417.741 71.6065 422.206 73.2586 426.112 75.867C430.017 78.4754 433.254 81.9669 435.559 86.0588L455.241 74.9707Z" fill="#6070FF"/>
<rect x="328" y="61.7906" width="95.5804" height="22.021" transform="rotate(-30 328 61.7906)" fill="#EBEBFF"/>
</svg>
